<?xml version="1.0"?>
<svg xmlns="http://www.w3.org/2000/svg" xmlns:xlink="http://www.w3.org/1999/xlink" version="1.1" id="Capa_1" x="0px" y="0px" viewBox="0 0 512.001 512.001" style="enable-background:new 0 0 512.001 512.001;" xml:space="preserve" width="512px" height="512px" class=""><g><g>
	<g>
		<path d="M412.339,0H154.847c-4.169,0-7.549,3.379-7.549,7.549s3.38,7.549,7.549,7.549h257.492c17.699,0,32.098,14.4,32.098,32.099    v435.08c0,8.065-6.561,14.627-14.627,14.627H82.189c-8.065,0-14.626-6.562-14.626-14.627V47.197    c0-17.699,14.399-32.099,32.098-32.099h24.991c4.169,0,7.549-3.379,7.549-7.549S128.821,0,124.652,0H99.661    C73.637,0,52.465,21.172,52.465,47.197v435.08c0,16.39,13.334,29.724,29.724,29.724h347.623c16.39,0,29.724-13.334,29.724-29.724    V47.197C459.535,21.172,438.363,0,412.339,0z" data-original="#e03c00" class="active-path" data-old_color="#e03c00" fill="#e03c00"/>
	</g>
</g><g>
	<g>
		<path d="M404.291,46.715h-15.865c-4.169,0-7.549,3.379-7.549,7.549s3.38,7.549,7.549,7.549h15.865c3.838,0,6.961,3.123,6.961,6.96    v347.367c0,3.839-3.122,6.961-6.961,6.961H107.709c-3.838,0-6.961-3.123-6.961-6.961V280.583c0-4.17-3.38-7.549-7.549-7.549    s-7.549,3.379-7.549,7.549v135.556c0,12.164,9.895,22.058,22.058,22.058h296.583c12.163,0,22.058-9.895,22.058-22.059V68.772    C426.35,56.61,416.455,46.715,404.291,46.715z" data-original="#e03c00" class="active-path" data-old_color="#e03c00" fill="#e03c00"/>
	</g>
</g><g>
	<g>
		<path d="M358.232,46.715H107.709c-12.163,0-22.057,9.895-22.057,22.057v181.616c0,4.17,3.38,7.549,7.549,7.549    c4.169,0,7.549-3.379,7.549-7.549V68.772c0-3.838,3.122-6.96,6.961-6.96h250.522c4.169,0,7.549-3.379,7.549-7.549    S362.401,46.715,358.232,46.715z" data-original="#e03c00" class="active-path" data-old_color="#e03c00" fill="#e03c00"/>
	</g>
</g><g>
	<g>
		<circle cx="246.673" cy="32.279" r="8.807" data-original="#e03c00" class="active-path" data-old_color="#e03c00" fill="#e03c00"/>
	</g>
</g><g>
	<g>
		<circle cx="267.951" cy="34.902" r="6.185" data-original="#e03c00" class="active-path" data-old_color="#e03c00" fill="#e03c00"/>
	</g>
</g><g>
	<g>
		<path d="M313.75,141.269h-25.472c-1.395-15.083-13.163-27.197-28.085-29.134c4.882-3.943,2.105-11.882-4.194-11.882    c-6.302,0-9.075,7.939-4.194,11.882c-14.922,1.938-26.689,14.051-28.085,29.134h-25.471c-4.169,0-7.549,3.379-7.549,7.549    c0,4.17,3.38,7.549,7.549,7.549c14.624,0,34.861,0,50.202,0v65.288h-26.043c-4.169,0-7.549,3.379-7.549,7.549    c0,4.17,3.38,7.549,7.549,7.549h67.184c4.169,0,7.549-3.379,7.549-7.549c0-4.17-3.38-7.549-7.549-7.549h-26.043v-65.288    c15.341,0,35.579,0,50.202,0c4.169,0,7.549-3.379,7.549-7.549C321.299,144.648,317.919,141.269,313.75,141.269z M238.935,141.27    c1.428-8.125,8.537-14.317,17.065-14.317s15.637,6.192,17.066,14.317H238.935z" data-original="#e03c00" class="active-path" data-old_color="#e03c00" fill="#e03c00"/>
	</g>
</g><g>
	<g>
		<path d="M197.37,176.929c-0.009,0-0.019,0-0.029,0c-0.002,0-0.008,0-0.012,0c-0.014,0-0.027,0-0.039,0c-0.006,0-0.012,0-0.018,0    c-0.02,0-0.045,0-0.075,0c-0.006,0-0.008,0-0.014,0c-0.01,0-0.019,0-0.028,0c-0.005,0-0.01,0-0.015,0c-0.016,0-0.034,0-0.052,0    c-0.006,0-0.011,0-0.017,0c-0.018,0-0.036,0-0.052,0c-0.007,0-0.015,0-0.022,0c-0.083,0-0.134,0.001-0.162,0.001    c-0.007,0-0.013,0-0.02,0c-0.001,0-0.002,0-0.003,0c-1.955,0.01-10.213,0.053-40.012,0.209v-54.746    c0.001-4.17-3.379-7.549-7.548-7.549c-4.169,0-7.549,3.379-7.549,7.549v106.811c0,4.17,3.38,7.549,7.549,7.549    c4.169,0,7.549-3.379,7.549-7.549v-36.968c23.71-0.124,30.711-0.16,32.491-0.169c0.002,0,0.007,0,0.011,0    c0.092,0,0.17-0.001,0.236-0.001c0.022,0,0.044,0,0.067,0c0.025,0,0.049,0,0.075,0c0.005,0,0.008,0,0.013,0    c0.006,0,0.011,0,0.017,0c0.008,0,0.018,0,0.025,0c0.01,0,0.02,0,0.03,0c0.009,0,0.02,0,0.026,0c0.002,0,0.003,0,0.005,0    s0.003,0,0.005,0c0.001,0,0.001,0,0.002,0c0.004,0,0.007,0,0.011,0c0.003,0,0.006,0,0.008,0v37.14c0,4.17,3.38,7.549,7.549,7.549    c4.169,0,7.549-3.379,7.549-7.549v-44.729C204.919,180.317,201.544,176.929,197.37,176.929z" data-original="#e03c00" class="active-path" data-old_color="#e03c00" fill="#e03c00"/>
	</g>
</g><g>
	<g>
		<path d="M362.751,114.845c-4.169,0-7.549,3.379-7.549,7.549v54.746H354.1c-38.853,0.508-40.901-1.887-44.793,1.985    c-1.424,1.416-2.225,3.343-2.225,5.352v44.729c0,4.17,3.38,7.549,7.549,7.549s7.549-3.379,7.549-7.549v-37.14    c-0.007,0-0.003,0,0.001,0c0.018,0,0.029,0,0.042,0c0.019,0,0.041,0,0.06,0c0.006,0,0.011,0,0.016,0    c0.08,0,0.192,0.001,0.386,0.002c0.015,0,0.032,0,0.037,0c1.795,0.009,8.817,0.046,32.481,0.169v36.968    c0,4.17,3.38,7.549,7.549,7.549c4.169,0,7.549-3.379,7.549-7.549v-106.81C370.3,118.224,366.92,114.845,362.751,114.845z" data-original="#e03c00" class="active-path" data-old_color="#e03c00" fill="#e03c00"/>
	</g>
</g><g>
	<g>
		<path d="M204.618,324.825c2.691-2.258,4.143-5.912,4.143-10.58c0-6.109-2.617-13.393-15.08-13.393h-13.03    c-3.105,0-5.359,1.8-5.359,4.279v43.883c0,2.401,2.304,4.211,5.359,4.211h14.312c9.682,0,15.013-5.619,15.013-15.823v-1.417    C209.975,330.573,208.345,327.097,204.618,324.825z M187.021,311.569h5.984c3.272,0,3.96,2.263,3.96,4.162    c0,6.267-5.818,3.697-9.943,4.297V311.569z M193.139,342.509h-6.12v-12.576c5.844,0.503,11.158-2.019,11.158,5.646    C197.996,336.052,199.299,342.509,193.139,342.509z" data-original="#e03c00" class="active-path" data-old_color="#e03c00" fill="#e03c00"/>
	</g>
</g><g>
	<g>
		<path d="M233.515,300.852c-11.161,0-17.308,6.027-17.308,16.971v18.837c0,10.944,6.147,16.97,17.308,16.97    c11.042,0,17.375-6.186,17.375-16.97v-18.837C250.891,307.038,244.558,300.852,233.515,300.852z M239.094,336.659    c0,4.267-1.772,6.254-5.579,6.254c-3.812,0-5.512-1.928-5.512-6.254v-18.837c0-4.326,1.7-6.254,5.512-6.254    c3.807,0,5.579,1.988,5.579,6.254V336.659z" data-original="#e03c00" class="active-path" data-old_color="#e03c00" fill="#e03c00"/>
	</g>
</g><g>
	<g>
		<path d="M275.645,300.852c-11.161,0-17.308,6.027-17.308,16.971v18.837c0,10.944,6.147,16.97,17.308,16.97    c11.042,0,17.375-6.186,17.375-16.97v-18.837C293.021,307.038,286.688,300.852,275.645,300.852z M281.225,336.659    c0,4.267-1.772,6.254-5.579,6.254c-3.812,0-5.512-1.928-5.512-6.254v-18.837c0-4.326,1.7-6.254,5.512-6.254    c3.807,0,5.579,1.988,5.579,6.254V336.659z" data-original="#e03c00" class="active-path" data-old_color="#e03c00" fill="#e03c00"/>
	</g>
</g><g>
	<g>
		<path d="M336.727,345.284l-14.117-21.501l11.415-14.283c0.857-1.105,0.857-2.24,0.857-2.614c0-4.323-7.024-8.608-10.221-4.135    l-11.857,16.138v-13.826c0-2.518-2.37-4.211-5.898-4.211s-5.898,1.693-5.898,4.211v43.884c0,2.518,2.426,4.278,5.898,4.278    c3.418,0,5.898-1.799,5.898-4.278v-12.706l2.023-2.547l11.517,17.459c3.069,5.022,11.103,1.337,11.103-3.487    C337.448,346.766,337.187,345.925,336.727,345.284z" data-original="#e03c00" class="active-path" data-old_color="#e03c00" fill="#e03c00"/>
	</g>
</g><g>
	<g>
		<path d="M345.698,270.8H166.303c-18.003,0-32.65,14.647-32.65,32.649v42.801c0,18.003,14.647,32.649,32.65,32.649h179.395    c18.003,0,32.65-14.647,32.65-32.649v-42.801C378.348,285.447,363.701,270.8,345.698,270.8z M363.25,346.251    c0,9.677-7.874,17.551-17.552,17.551H166.303c-9.679,0-17.552-7.874-17.552-17.551V303.45c0-9.677,7.874-17.551,17.552-17.551    h179.395c9.678,0,17.552,7.874,17.552,17.551V346.251z" data-original="#e03c00" class="active-path" data-old_color="#e03c00" fill="#e03c00"/>
	</g>
</g><g>
	<g>
		<path d="M256,446.901c-11.82,0-21.436,9.615-21.436,21.436c0,11.82,9.616,21.438,21.436,21.438s21.436-9.617,21.436-21.438    S267.82,446.901,256,446.901z M256,474.678c-3.496,0-6.339-2.843-6.339-6.34c0-3.496,2.843-6.339,6.339-6.339    s6.339,2.843,6.339,6.339C262.339,471.835,259.496,474.678,256,474.678z" data-original="#e03c00" class="active-path" data-old_color="#e03c00" fill="#e03c00"/>
	</g>
</g></g> </svg>
