<svg height="512pt" viewBox="0 -4 512.00028 512" width="512pt" xmlns="http://www.w3.org/2000/svg"><path d="m475.988281 71.273438c19.679688.207031 35.804688-15.582032 36.011719-35.261719.207031-19.679688-15.582031-35.800781-35.261719-36.00781275-19.683593-.20703125-35.804687 15.57812475-36.011719 35.25781275-.109374 10.292969 4.238282 20.128906 11.921876 26.976562l-22.039063 41.710938c-21.84375-8.316407-45.984375-8.316407-67.828125 0l-22.035156-41.71875c14.382812-12.988281 15.519531-35.175781 2.53125-49.5625-12.988282-14.386719-35.175782-15.519531-49.5625-2.53125-14.382813 12.984375-15.519532 35.175781-2.53125 49.558593 6.675781 7.394532 16.179687 11.605469 26.140625 11.578126 2.589843-.003907 5.171875-.300782 7.695312-.882813l21.84375 41.269531c-45.835937 27.300782-60.867187 86.589844-33.566406 132.425782 4.78125 8.027343 10.699219 15.320312 17.574219 21.648437.125.121094.25.21875.371094.332031 2.988281 2.753906 6.144531 5.320313 9.449218 7.679688l-28.53125 53.890625c-33.726562-24.457031-79.351562-24.457031-113.074218 0l-28.535157-53.890625c3.304688-2.363282 6.460938-4.925782 9.449219-7.679688.125-.113281.246094-.210937.371094-.332031 39.253906-36.132813 41.78125-97.246094 5.648437-136.496094-6.328125-6.875-13.617187-12.796875-21.648437-17.578125l21.851562-41.269531c2.523438.582031 5.105469.878906 7.695313.882813 19.683593.207031 35.804687-15.582032 36.011719-35.261719.207031-19.679688-15.578126-35.804688-35.261719-36.00781275-19.679688-.20703125-35.800781 15.57812475-36.007813 35.25781275-.109375 10.292969 4.234375 20.128906 11.917969 26.976562l-22.089844 41.71875c-21.835937-8.320312-45.972656-8.320312-67.8125 0l-22.078125-41.71875c14.390625-12.980469 15.53125-35.171875 2.550782-49.558593-12.984376-14.390626-35.171876-15.535157-49.5625-2.554688-14.390626 12.984375-15.53125 35.171875-2.550782 49.5625 6.691406 7.417969 16.230469 11.632812 26.21875 11.585938 2.589844-.003907 5.171875-.300782 7.695313-.882813l21.851562 41.269531c-45.832031 27.308594-60.851562 86.597656-33.546875 132.429688 4.777344 8.015625 10.6875 15.296875 17.550782 21.617187.121093.121094.246093.21875.367187.335938 28.71875 26.582031 70.683594 33.117187 106.121094 16.515625l30.144531 56.953125c-37.128906 38.472656-36.039062 99.761719 2.433594 136.890625 37.011718 35.722656 95.5 36.257812 133.164062 1.226562.121094-.113281.246094-.210937.371094-.335937 39.226562-36.066407 41.789062-97.101563 5.726562-136.332031-.4375-.472657-.875-.941407-1.320312-1.40625l30.15625-56.960938c35.433594 16.597656 77.386719 10.066406 106.101562-16.515625.121094-.117187.246094-.214844.367188-.335937 39.292969-36.222657 41.78125-97.433594 5.558594-136.726563-6.289063-6.820313-13.523438-12.699219-21.484375-17.460937l21.78125-41.164063c2.523437.578125 5.105469.875 7.695312.882813zm-176.292969-35.257813c0-9.738281 7.890626-17.628906 17.628907-17.628906s17.628906 7.890625 17.628906 17.628906c0 9.734375-7.890625 17.628906-17.628906 17.628906s-17.628907-7.894531-17.628907-17.628906zm-105.777343-17.628906c9.738281 0 17.628906 7.890625 17.628906 17.628906 0 9.734375-7.890625 17.628906-17.628906 17.628906-9.734375 0-17.628907-7.894531-17.628907-17.628906 0-9.738281 7.894532-17.628906 17.628907-17.628906zm-176.292969 17.628906c0-9.738281 7.894531-17.628906 17.628906-17.628906 9.738282 0 17.632813 7.890625 17.632813 17.628906 0 9.734375-7.894531 17.628906-17.632813 17.628906-9.734375 0-17.628906-7.894531-17.628906-17.628906zm17.628906 158.664063c-.082031-43.816407 35.367188-79.402344 79.183594-79.484376 43.8125-.082031 79.398438 35.367188 79.480469 79.179688.035156 17.878906-5.972657 35.246094-17.046875 49.285156-6.5625-14.757812-16.269532-27.910156-28.445313-38.527344 15.710938-18.6875 13.300781-46.570312-5.386719-62.285156-18.6875-15.710937-46.570312-13.296875-62.28125 5.386719-13.828124 16.445313-13.828124 40.453125 0 56.898437-12.179687 10.628907-21.890624 23.785157-28.453124 38.554688-11.046876-13.945312-17.054688-31.21875-17.050782-49.007812zm54.125-9.699219c-4.394531-13.925781 3.335938-28.777344 17.265625-33.171875 13.929688-4.390625 28.78125 3.339844 33.171875 17.269531 4.394532 13.929687-3.339844 28.78125-17.265625 33.171875-.011719.003906-.019531.007812-.03125.007812-13.921875 4.375-28.753906-3.359374-33.140625-17.277343zm-23.722656 72.015625 1.242188-3.09375c5.902343-14.675782 15.441406-27.613282 27.714843-37.59375 12.445313 6.621094 27.375 6.597656 39.796875-.0625 12.34375 9.976562 21.933594 22.9375 27.863282 37.65625l1.242187 3.097656c-28.671875 22.671875-69.167969 22.671875-97.839844 0h-.019531zm142.128906 212.375c1.40625-.972656 2.496094-2.332032 3.136719-3.914063 5.765625-14.246093 14.957031-26.847656 26.761719-36.6875 12.042968 5.535157 25.976562 5.167969 37.710937-.996093 12.359375 9.980468 21.96875 22.949218 27.914063 37.683593l1.242187 3.09375c-28.269531 22.375-68.121093 22.710938-96.765625.820313zm47.835938-54.328125c-14.605469 0-26.445313-11.839844-26.445313-26.441407 0-14.605468 11.839844-26.445312 26.445313-26.445312 14.605468 0 26.445312 11.839844 26.445312 26.445312 0 14.601563-11.839844 26.441407-26.445312 26.441407zm62.285156 40.167969c-6.578125-14.796876-16.320312-27.972657-28.542969-38.597657 6.632813-7.832031 10.289063-17.75 10.332031-28.011719.140626-24.339843-19.472656-44.1875-43.816406-44.332031-24.339844-.140625-44.1875 19.472657-44.328125 43.816407-.066406 11.113281 4.070313 21.839843 11.582031 30.035156-12.089843 10.925781-21.621093 24.382812-27.917968 39.410156-28.410156-33.355469-24.398438-83.425781 8.957031-111.835938 33.355469-28.40625 83.425781-24.398437 111.835937 8.957032 24.511719 28.785156 25.308594 70.871094 1.898438 100.558594zm29.820312-198.214844 1.242188-3.09375c5.953125-14.726563 15.574219-27.691406 27.941406-37.664063 12.355469 6.507813 27.121094 6.507813 39.472656 0 12.378907 9.964844 22.003907 22.925781 27.960938 37.65625l1.242188 3.09375c-28.671876 22.675781-69.167969 22.675781-97.84375 0zm48.929688-53.503906c-14.605469 0-26.445312-11.839844-26.445312-26.441407 0-14.605469 11.839843-26.445312 26.445312-26.445312s26.445312 11.839843 26.445312 26.445312c0 14.601563-11.839843 26.441407-26.445312 26.441407zm79.332031-8.8125c0 17.785156-6.007812 35.050781-17.054687 48.992187-6.574219-14.804687-16.3125-27.988281-28.535156-38.617187 6.632812-7.832032 10.289062-17.746094 10.332031-28.003907 0-24.34375-19.734375-44.074219-44.074219-44.074219s-44.074219 19.730469-44.074219 44.074219c.046875 10.261719 3.707031 20.179688 10.339844 28.011719-12.222656 10.621094-21.964844 23.800781-28.539063 38.597656-27.144531-34.394531-21.265624-84.277344 13.128907-111.421875 34.394531-27.140625 84.277343-21.261719 111.421875 13.132813 11.082031 14.042968 17.089844 31.417968 17.054687 49.308594zm0-176.292969c9.734375 0 17.628907 7.890625 17.628907 17.628906 0 9.734375-7.894532 17.628906-17.628907 17.628906-9.738281 0-17.628906-7.894531-17.628906-17.628906 0-9.738281 7.890625-17.628906 17.628906-17.628906zm0 0"/></svg>