<svg height="512pt" viewBox="-2 0 512 512" width="512pt" xmlns="http://www.w3.org/2000/svg"><path d="m309.242188 0h-265.308594c-24.265625 0-43.933594 19.667969-43.933594 43.933594v424.132812c0 24.265625 19.667969 43.933594 43.933594 43.933594h265.308594c24.265624 0 43.933593-19.667969 43.933593-43.933594v-424.132812c0-24.265625-19.667969-43.933594-43.933593-43.933594zm0 0" fill="#24465e"/><path d="m321.828125 43.9375v424.132812c0 6.949219-5.632813 12.582032-12.582031 12.582032h-265.320313c-6.949219 0-12.578125-5.632813-12.578125-12.582032v-424.132812c0-6.949219 5.640625-12.59375 12.578125-12.59375h36.121094c11.996094 0 22.550781 7.941406 25.863281 19.476562 1.660156 5.757813 5.128906 10.628907 9.6875 14.054688 4.542969 3.429688 10.1875 5.414062 16.183594 5.414062h89.609375c12.007813 0 22.550781-7.941406 25.871094-19.46875 1.652343-5.765624 5.121093-10.636718 9.675781-14.0625 4.558594-3.425781 10.191406-5.414062 16.1875-5.414062h36.121094c6.9375 0 12.582031 5.644531 12.582031 12.59375zm0 0" fill="#e6e6e6"/><path d="m215.25 44.6875h-77.324219c-4.328125 0-7.835937-3.507812-7.835937-7.835938 0-4.328124 3.507812-7.835937 7.835937-7.835937h77.324219c4.328125 0 7.835938 3.507813 7.835938 7.835937 0 4.328126-3.507813 7.835938-7.835938 7.835938zm0 0" fill="#152f42"/><path d="m321.828125 104.769531v331.933594h-13.949219c-21.066406 0-38.140625-17.074219-38.140625-38.140625v-255.652344c0-21.066406 17.074219-38.140625 38.140625-38.140625zm0 0" fill="#ccc"/><path d="m508.144531 398.5625v-255.648438c0-21.0625-17.074219-38.140624-38.136719-38.140624h-144.890624c-21.0625 0-38.140626 17.078124-38.140626 38.140624v255.648438c0 21.0625 17.078126 38.136719 38.140626 38.136719h144.890624c21.0625.003906 38.136719-17.074219 38.136719-38.136719zm0 0" fill="#e55c5c"/><path d="m458.367188 319.476562v-214.703124h-46.253907v331.929687h46.253907zm0 0" fill="#24465e"/><g fill="#e6e6e6"><path d="m371.378906 304.757812c-4.324218 0-7.835937-3.507812-7.835937-7.835937v-52.371094c0-4.328125 3.511719-7.835937 7.835937-7.835937 4.328125 0 7.839844 3.507812 7.839844 7.835937v52.371094c0 4.328125-3.511719 7.835937-7.839844 7.835937zm0 0"/><path d="m371.378906 388.175781c-4.324218 0-7.835937-3.507812-7.835937-7.835937v-52.371094c0-4.328125 3.511719-7.835938 7.835937-7.835938 4.328125 0 7.839844 3.507813 7.839844 7.835938v52.371094c0 4.328125-3.511719 7.835937-7.839844 7.835937zm0 0"/><path d="m371.378906 221.339844c-4.324218 0-7.835937-3.507813-7.835937-7.835938v-52.371094c0-4.328124 3.511719-7.835937 7.835937-7.835937 4.328125 0 7.839844 3.507813 7.839844 7.835937v52.371094c0 4.328125-3.511719 7.835938-7.839844 7.835938zm0 0"/></g><path d="m149.226562 394.695312c-42.035156-1.402343-76.363281-23.121093-76.363281-45.539062 0-11.910156 10.507813-29.425781 23.816407-29.425781 14.714843 0 26.625 20.667969 52.546874 25.222656v-56.75c-32.226562-12.257813-70.058593-27.320313-70.058593-72.160156 0-44.488281 32.925781-65.855469 70.058593-71.109375v-9.808594c0-4.90625 5.601563-9.457031 13.308594-9.457031 6.65625 0 13.3125 4.550781 13.3125 9.457031v8.757812c21.71875.699219 62.703125 6.304688 62.703125 30.476563 0 9.457031-6.304687 28.722656-21.71875 28.722656-11.558593 0-18.214843-11.210937-40.984375-12.960937v51.144531c31.878906 11.90625 69.007813 28.371094 69.007813 75.664063 0 43.433593-28.023438 69.707031-69.007813 76.363281v10.15625c0 4.90625-6.65625 9.460937-13.3125 9.460937-7.703125 0-13.308594-4.554687-13.308594-9.460937zm3.503907-161.835937v-41.6875c-15.765625 3.152344-22.421875 11.210937-22.421875 19.617187 0 10.160157 9.109375 16.464844 22.421875 22.070313zm19.613281 64.804687v46.9375c11.910156-2.800781 21.371094-9.457031 21.371094-22.066406 0-11.5625-8.757813-18.917968-21.371094-24.871094zm0 0" fill="#74dbad"/></svg>