<?xml version="1.0" encoding="utf-8"?>
<!-- Generator: Adobe Illustrator 19.0.0, SVG Export Plug-In . SVG Version: 6.00 Build 0)  -->
<svg version="1.1" id="Calque_1" xmlns="http://www.w3.org/2000/svg" xmlns:xlink="http://www.w3.org/1999/xlink" x="0px" y="0px"
	 viewBox="-177 269 256 255" style="enable-background:new -177 269 256 255;" xml:space="preserve">
<style type="text/css">
	.st0{fill:#87C040;}
	.st1{fill:#ED9A2D;}
	.st2{fill:#5698C6;}
	.st3{fill:#446BA6;}
	.st4{fill:#FFF101;}
	.st5{fill:#45AB47;}
</style>
<g>
	<path class="st0" d="M-88,435.9l32.3-32.3l-48.5,0h-0.1c-26.9,0-48.7,21.8-48.7,48.7c0,26.9,21.8,48.7,48.7,48.7c2,0,4-0.1,6-0.4
		C-109,479.6-105.5,453.4-88,435.9"/>
	<path class="st0" d="M-48.7,452.2v-45.7L-83,440.8l-0.1,0.1c-19,19-19,49.8,0,68.8s49.8,19,68.8,0c1.4-1.4,2.7-3,4-4.5
		C-32.6,497.9-48.7,476.9-48.7,452.2"/>
	<path class="st0" d="M-9.3,435.9l-32.3-32.3v48.6c0,26.9,21.8,48.7,48.7,48.7s48.7-21.8,48.7-48.7c0-2-0.1-4-0.4-6
		C34.4,456.8,8.2,453.4-9.3,435.9"/>
	<path class="st0" d="M64.5,362.1c-1.4-1.4-3-2.7-4.5-4c-7.3,22.3-28.3,38.4-53,38.4h-45.7l34.4,34.4c19,19,49.8,19,68.8,0
		C83.6,411.9,83.6,381.1,64.5,362.1"/>
	<path class="st1" d="M7,292.1c-2,0-4,0.1-6,0.4c10.6,20.9,7.2,47.2-10.3,64.6l-32.3,32.3H7c26.9,0,48.7-21.8,48.7-48.7
		C55.7,313.9,33.9,292.1,7,292.1"/>
	<path class="st2" d="M-14.3,283.3c-19-19-49.8-19-68.8,0c-1.4,1.4-2.7,3-4,4.5c22.3,7.3,38.4,28.3,38.4,53v45.7l34.3-34.3l0.1-0.1
		C4.7,333.1,4.7,302.3-14.3,283.3"/>
	<path class="st2" d="M-88,357.2l1.4,1.4l30.8,30.8h0v-48.5v-0.1c0-26.9-21.8-48.7-48.7-48.7s-48.7,21.8-48.7,48.7c0,2,0.1,4,0.4,6
		C-131.8,336.2-105.5,339.7-88,357.2"/>
	<path class="st2" d="M-157.2,434.5c0.4-1.1,0.8-2.2,1.2-3.3c0.1-0.1,0.1-0.3,0.2-0.4c0.5-1.2,1-2.3,1.6-3.5
		c0.1-0.3,0.3-0.5,0.4-0.7c0.6-1.1,1.2-2.2,1.9-3.3c0.1-0.1,0.1-0.2,0.2-0.3c0.6-1,1.3-2,2-3c0.1-0.2,0.3-0.4,0.4-0.6
		c0.7-1,1.5-2,2.3-2.9c0.2-0.2,0.3-0.4,0.5-0.6c0.8-0.9,1.6-1.8,2.4-2.6c0.1-0.1,0.1-0.2,0.2-0.2c0.9-0.9,1.8-1.8,2.8-2.6
		c0.2-0.2,0.4-0.4,0.6-0.5c1-0.8,1.9-1.6,2.9-2.4c0.1-0.1,0.3-0.2,0.4-0.3c0.9-0.7,1.9-1.3,2.9-2c0.2-0.1,0.4-0.3,0.6-0.4
		c1.1-0.7,2.2-1.3,3.3-1.9c0.2-0.1,0.5-0.2,0.7-0.4c1.1-0.6,2.2-1.1,3.4-1.6c0.1,0,0.1,0,0.2-0.1c1.2-0.5,2.4-1,3.6-1.4
		c0.3-0.1,0.5-0.2,0.8-0.3c1.2-0.4,2.4-0.8,3.7-1.1c0.2,0,0.4-0.1,0.6-0.1c1.2-0.3,2.3-0.5,3.5-0.7c0.2,0,0.4-0.1,0.7-0.1
		c1.3-0.2,2.6-0.4,3.9-0.5c0.3,0,0.6,0,0.9-0.1c1.4-0.1,2.7-0.2,4.1-0.2l45.7,0l-34.4-34.4c-19-19-49.8-19-68.8,0
		c-19,19-19,49.8,0,68.8c1.4,1.4,2.9,2.8,4.5,4C-157.3,434.8-157.3,434.7-157.2,434.5"/>
	<path class="st3" d="M-92.9,362.1l27.2,27.2h-36.6l-2.1,0c-22.3,0-41.1-15-46.8-35.4C-132.7,343.6-108.8,346.3-92.9,362.1
		L-92.9,362.1"/>
	<path class="st3" d="M-55.8,340.8v38.5l-25.9-25.9l-1.5-1.4c-15.8-15.8-18.5-39.6-8.1-58.2c20.5,5.8,35.5,24.6,35.5,46.8V340.8"/>
	<path class="st3" d="M-14.1,352.1l-27.2,27.2v-36.6l0-2.1c0-22.3,15-41.1,35.4-46.8C4.4,312.4,1.7,336.2-14.1,352.1L-14.1,352.1"/>
	<path class="st4" d="M7,389.3h-38.5l25.9-25.9l1.4-1.5c15.8-15.8,39.6-18.5,58.2-8.1c-5.8,20.5-24.6,35.5-46.8,35.5H7"/>
	<path class="st5" d="M-4.4,430.7l-27.2-27.2H5l2.1,0c22.3,0,41.1,15,46.8,35.4C35.4,449.2,11.5,446.6-4.4,430.7L-4.4,430.7"/>
	<path class="st5" d="M-41.5,452v-38.5l25.9,25.9l1.5,1.4C1.6,456.6,4.3,480.4-6,499c-20.5-5.8-35.5-24.6-35.5-46.9V452"/>
	<path class="st5" d="M-82.8,440.9l27.2-27.2v36.6l0,2.1c0,22.3-15,41.1-35.4,46.8C-101.4,480.7-98.7,456.8-82.8,440.9L-82.8,440.9"
		/>
	<path class="st5" d="M-104.2,403.7h38.5l-25.9,25.9l-1.4,1.5c-15.8,15.8-39.6,18.5-58.2,8.1c5.8-20.5,24.6-35.5,46.9-35.5H-104.2"
		/>
</g>
</svg>
