<?xml version="1.0"?>
<svg xmlns="http://www.w3.org/2000/svg" height="512px" viewBox="-2 0 512 512" width="512px"><g><path d="m141.429688 50.96875h75.027343c4.199219 0 7.601563-3.40625 7.601563-7.605469s-3.402344-7.605469-7.601563-7.605469h-75.027343c-4.199219 0-7.605469 3.40625-7.605469 7.605469s3.40625 7.605469 7.605469 7.605469zm0 0" data-original="#000000" class="active-path" data-old_color="#000000" fill="#04b261"/><path d="m463.648438 101.664062h-105.753907v-51.425781c0-27.703125-22.539062-50.238281-50.238281-50.238281h-257.429688c-27.695312 0-50.226562 22.535156-50.226562 50.238281v411.535157c0 27.695312 22.53125 50.226562 50.226562 50.226562h257.429688c27.699219 0 50.238281-22.53125 50.238281-50.226562v-22.835938h105.753907c24.597656 0 44.609374-20.011719 44.609374-44.605469v-248.058593c0-24.597657-20.011718-44.609376-44.609374-44.609376zm-120.964844 360.109376c0 19.308593-15.710938 35.019531-35.027344 35.019531h-257.429688c-19.308593 0-35.019531-15.710938-35.019531-35.019531v-411.535157c0-19.316406 15.710938-35.03125 35.019531-35.03125h257.429688c19.316406 0 35.027344 15.714844 35.027344 35.03125v51.425781h-15.207032v-51.425781c0-10.929687-8.886718-19.824219-19.808593-19.824219h-35.050781c-7.371094 0-14.382813 2.347657-20.277344 6.78125-5.894532 4.4375-10.089844 10.527344-12.132813 17.625-2.265625 7.878907-9.578125 13.382813-17.785156 13.382813h-86.960937c-4.042969 0-7.894532-1.289063-11.125-3.71875-3.234376-2.4375-5.539063-5.785156-6.660157-9.671875-4.136719-14.363281-17.464843-24.398438-32.410156-24.398438h-35.039063c-10.921874 0-19.8125 8.894532-19.8125 19.824219v411.535157c0 10.921874 8.890626 19.8125 19.8125 19.8125h18.867188c4.199219 0 7.605469-3.40625 7.605469-7.605469s-3.40625-7.605469-7.605469-7.605469h-18.867188c-2.539062 0-4.601562-2.0625-4.601562-4.601562v-411.535157c0-2.546875 2.0625-4.613281 4.601562-4.613281h35.039063c8.207031 0 15.523437 5.507812 17.796875 13.402344 2.042969 7.074218 6.230469 13.160156 12.125 17.601562 5.894531 4.4375 12.90625 6.78125 20.273438 6.78125h86.960937c14.949219 0 28.273437-10.03125 32.398437-24.386718 1.121094-3.894532 3.425782-7.238282 6.664063-9.675782 3.238281-2.433594 7.085937-3.722656 11.132813-3.722656h35.046874c2.539063 0 4.605469 2.070312 4.605469 4.613281v52.753907c-19.402343 4.835937-33.820312 22.402343-33.820312 43.28125v28.644531c0 4.199219 3.402343 7.605469 7.605469 7.605469 4.199218 0 7.601562-3.40625 7.601562-7.605469v-28.644531c0-16.210938 13.191406-29.402344 29.402344-29.402344h76.808594v306.859375h-76.808594c-16.210938 0-29.402344-13.1875-29.402344-29.398438v-191.597656c0-4.199219-3.402344-7.601563-7.601562-7.601563-4.203126 0-7.605469 3.402344-7.605469 7.601563v191.59375c0 20.878906 14.417969 38.445313 33.820312 43.28125v24.164063c0 2.535156-2.066406 4.601562-4.605469 4.601562h-208.152343c-4.199219 0-7.605469 3.40625-7.605469 7.605469s3.40625 7.601562 7.605469 7.601562h208.15625c10.921875 0 19.808593-8.886719 19.808593-19.808593v-22.835938h15.207032zm72.390625-38.042969v-306.859375h29.675781v306.859375zm77.976562-29.402344c0 16.210937-13.191406 29.402344-29.402343 29.402344h-3.691407v-306.859375h3.691407c16.210937 0 29.402343 13.1875 29.402343 29.402344zm0 0" data-original="#000000" class="active-path" data-old_color="#000000" fill="#04b261"/><path d="m367.949219 303.3125c4.199219 0 7.605469-3.40625 7.605469-7.605469v-50.8125c0-4.199219-3.40625-7.605469-7.605469-7.605469s-7.605469 3.40625-7.605469 7.605469v50.8125c0 4.199219 3.40625 7.605469 7.605469 7.605469zm0 0" data-original="#000000" class="active-path" data-old_color="#000000" fill="#04b261"/><path d="m367.949219 384.253906c4.199219 0 7.605469-3.40625 7.605469-7.605468v-50.8125c0-4.199219-3.40625-7.605469-7.605469-7.605469s-7.605469 3.40625-7.605469 7.605469v50.8125c0 4.199218 3.40625 7.605468 7.605469 7.605468zm0 0" data-original="#000000" class="active-path" data-old_color="#000000" fill="#04b261"/><path d="m367.949219 222.371094c4.199219 0 7.605469-3.40625 7.605469-7.605469v-50.8125c0-4.199219-3.40625-7.605469-7.605469-7.605469s-7.605469 3.40625-7.605469 7.605469v50.8125c0 4.199219 3.40625 7.605469 7.605469 7.605469zm0 0" data-original="#000000" class="active-path" data-old_color="#000000" fill="#04b261"/><path d="m163.398438 233.546875v-40.445313c0-2.28125-1.023438-4.4375-2.785157-5.882812-1.761719-1.441406-4.074219-2.019531-6.3125-1.574219-6.535156 1.308594-27.863281 7.082031-27.863281 26.488281 0 15.335938 14.109375 23.246094 26.402344 28.421876.949218.398437 1.953125.597656 2.953125.597656 1.472656 0 2.941406-.429688 4.207031-1.269532 2.121094-1.410156 3.398438-3.789062 3.398438-6.335937zm-15.210938-12.382813c-5.574219-3.660156-6.542969-6.566406-6.542969-9.03125 0-3.347656 2.34375-6.308593 6.542969-8.53125zm0 0" data-original="#000000" class="active-path" data-old_color="#000000" fill="#04b261"/><path d="m170.105469 347.933594c1.355469 1.074218 3.023437 1.644531 4.722656 1.644531.578125 0 1.164063-.066406 1.738281-.203125 16.902344-3.976562 26.597656-14.480469 26.597656-28.816406 0-17.171875-14.320312-25.921875-25.089843-31.007813-2.359375-1.109375-5.117188-.941406-7.320313.453125-2.199218 1.394532-3.53125 3.816406-3.53125 6.421875v45.546875c0 2.320313 1.0625 4.515625 2.882813 5.960938zm12.324219-38.011719c4.683593 3.996094 5.527343 7.539063 5.527343 10.636719 0 1.871094 0 6.484375-5.527343 10.230468zm0 0" data-original="#000000" class="active-path" data-old_color="#000000" fill="#04b261"/><path d="m144.789062 397.726562v1.347657c0 9.410156 9.015626 16.78125 20.519532 16.78125 12.09375 0 20.519531-8.84375 20.519531-16.78125v-3.5625c42.070313-9.15625 66.957031-38.8125 66.957031-80.390625 0-22.601563-8.242187-41.210938-24.5-55.324219-12.546875-10.890625-28.140625-17.828125-42.457031-23.34375v-35.558594c6.316406 1.464844 10.871094 3.824219 15.027344 5.976563 5.109375 2.652344 10.394531 5.390625 17.136719 5.390625 20.265624 0 28.675781-23.105469 28.675781-35.476563 0-9.53125-4.792969-22.5625-27.621094-30.503906-11.320313-3.941406-23.960937-5.589844-33.21875-6.273438v-1.289062c0-7.9375-8.425781-16.78125-20.519531-16.78125-11.503906 0-20.519532 7.371094-20.519532 16.78125v3.082031c-42.710937 8.261719-67.976562 36.085938-67.976562 75.433594 0 46.820313 37.839844 63.660156 67.976562 75.253906v39.839844c-7.472656-2.882813-13.601562-7.269531-19.1875-11.269531-7.773437-5.566406-15.121093-10.820313-24.191406-10.820313-8.375 0-16.378906 4.636719-22.535156 13.054688-5.121094 7.003906-8.179688 15.636719-8.179688 23.097656 0 13.21875 9.261719 26.425781 25.40625 36.238281 13.539063 8.226563 30.605469 13.492188 48.6875 15.097656zm-58.886718-51.335937c0-10.113281 9.101562-20.945313 15.507812-20.945313 4.191406 0 9.355469 3.695313 15.339844 7.980469 8.535156 6.105469 19.15625 13.710938 34.328125 16.375 2.214844.390625 4.484375-.222656 6.207031-1.667969 1.71875-1.441406 2.710938-3.574218 2.710938-5.820312v-55.0625c0-3.15625-1.949219-5.984375-4.898438-7.109375-35.738281-13.59375-63.078125-26.859375-63.078125-62.910156 0-47.628907 42.96875-58.851563 61.441407-61.46875 3.75-.53125 6.535156-3.738281 6.535156-7.527344v-9.242187c.410156-.570313 2.179687-1.847657 5.3125-1.847657 2.523437 0 4.671875 1.351563 5.3125 2.113281v7.957032c0 4.101562 3.257812 7.46875 7.359375 7.597656 19.863281.640625 53.480469 5.992188 53.480469 21.972656 0 3.3125-1.21875 8.964844-3.890626 13.539063-3.925781 6.726562-8.179687 6.726562-9.578124 6.726562-2.894532 0-5.601563-1.332031-10.136719-3.683593-6.347657-3.289063-15.039063-7.792969-29.046875-8.871094-2.117188-.160156-4.195313.566406-5.75 2.003906-1.554688 1.4375-2.4375 3.460938-2.4375 5.578125v49.625c0 3.171875 1.96875 6.011719 4.941406 7.125 32.683594 12.210937 62.015625 26.46875 62.015625 66.292969 0 36.066406-22.078125 60.339844-60.570313 66.589844-3.683593.597656-6.386718 3.777343-6.386718 7.507812v9.316406c-.640625.757813-2.789063 2.113282-5.3125 2.113282-3.132813 0-4.902344-1.277344-5.3125-1.851563v-8.21875c0-4.101563-3.25-7.464844-7.347656-7.601563-38.203126-1.273437-66.746094-20.367187-66.746094-36.585937zm0 0" data-original="#000000" class="active-path" data-old_color="#000000" fill="#04b261"/></g> </svg>
